<svg width="165" height="30" fill="none"><path d="M71.808 24.297c-.907.168-1.954.251-3.178.251-1.907 0-2.86-.93-2.86-2.826v-8.35h5.178c2.047 0 2.542-.466 2.542-2.363v-.464c0-1.897-.495-2.362-2.542-2.362H65.77V4.91c0-1.814-.411-2.195-2.365-2.195h-.27c-1.954 0-2.496.419-2.73 2.148l-.542 3.33-1.86.38c-1.776.335-2.224.846-2.224 2.53v.167c0 1.683.458 2.11 2.27 2.11h1.823v8.304c0 5.356 2.907 8.053 8.767 8.053 1.318 0 2.411-.084 3.178-.251 1.953-.381 2.495-1.097 2.495-2.994v-.465c-.009-1.85-.458-2.065-2.504-1.73zM118.96 8.146h-.86c-2.047 0-2.543.464-2.543 2.361V21.22c0 2.362-.822 3.33-4.318 3.33-3.495 0-4.411-.968-4.411-3.33V10.507c0-1.896-.495-2.361-2.542-2.361h-.86c-2.047 0-2.542.464-2.542 2.361V21.22c0 5.57 3.495 8.518 10.365 8.518 7.094 0 10.271-2.78 10.271-8.518V10.507c-.018-1.896-.514-2.361-2.56-2.361zm-68.369.009h-.822c-2.047 0-2.542.465-2.542 2.362v16.867c0 1.897.495 2.362 2.542 2.362h.822c2.047 0 2.543-.465 2.543-2.362V10.517c0-1.897-.505-2.362-2.543-2.362zm-2.916-7.15c-1.41 1.301-1.41 3.328 0 4.64a3.67 3.67 0 005 0c1.412-1.312 1.412-3.33 0-4.64a3.69 3.69 0 00-5 0zm-5.888 7.15h-.86c-2.047 0-2.542.465-2.542 2.362v10.712c0 2.361-.813 3.329-4.318 3.329-3.495 0-4.411-.968-4.411-3.33V10.518c0-1.897-.496-2.362-2.542-2.362h-.86c-2.047 0-2.543.465-2.543 2.362v10.712c0 5.57 3.496 8.517 10.366 8.517 7.084 0 10.271-2.78 10.271-8.517V10.517c-.01-1.897-.514-2.362-2.56-2.362zM80.331 0h-.822c-2.056 0-2.561.465-2.561 2.38v24.986c0 1.915.505 2.38 2.56 2.38h.823c2.056 0 2.561-.465 2.561-2.38V2.38c0-1.915-.504-2.38-2.56-2.38zm17.16 9.922c1.215-1.414 1.037-1.767-.906-1.767h-2.169c-1.953 0-2.729.363-3.944 1.767l-4.383 5.067c-1.131 1.284-1.692 2.613-1.692 3.943v.019c0 1.33.56 2.659 1.692 3.942l4.383 5.068c1.215 1.404 1.99 1.767 3.944 1.767h2.169c1.953 0 2.121-.363.906-1.767l-6.636-7.57c-.523-.566-.776-1.18-.776-1.46 0-.278.262-.892.776-1.459l6.636-7.55zM18.3 0h-.822c-2.057 0-2.561.465-2.561 2.38V7.04c2.046 1.07 3.794 2.585 5.084 4.398-2.112-2.027-5.075-3.291-8.356-3.291C5.216 8.155 0 12.99 0 18.95c0 5.97 5.215 10.805 11.646 10.805 3.261 0 6.205-1.247 8.318-3.255a14.25 14.25 0 01-3.187 3.208c.214.019.448.028.7.028h.823c2.056 0 2.56-.465 2.56-2.38V2.38C20.86.465 20.357 0 18.3 0z" fill="#1B418A"></path><path d="M134.557 25.708h-.079c-.674.979-1.682 1.468-3.024 1.468-1.26 0-2.241-.43-2.944-1.292-.698-.861-1.046-2.086-1.046-3.674s.351-2.821 1.055-3.7c.703-.88 1.681-1.319 2.935-1.319 1.307 0 2.309.475 3.006 1.424h.114l-.061-.694-.035-.677v-3.92h1.459V27h-1.187l-.193-1.292zm-2.918.246c.996 0 1.716-.27 2.162-.809.451-.544.677-1.42.677-2.627v-.308c0-1.365-.229-2.338-.686-2.918-.451-.586-1.175-.879-2.171-.879-.855 0-1.512.334-1.969 1.002-.451.662-.676 1.6-.676 2.813 0 1.23.225 2.159.676 2.786.452.627 1.114.94 1.987.94zm15.715-3.78c0 1.571-.396 2.799-1.187 3.683-.791.88-1.884 1.319-3.278 1.319-.862 0-1.626-.202-2.294-.607-.668-.404-1.184-.984-1.547-1.74s-.545-1.64-.545-2.654c0-1.57.393-2.792 1.178-3.665.785-.88 1.875-1.319 3.269-1.319 1.348 0 2.417.449 3.208 1.345.797.897 1.196 2.11 1.196 3.639zm-7.339 0c0 1.231.246 2.169.738 2.813.492.645 1.216.967 2.171.967.955 0 1.679-.32 2.171-.958.498-.644.747-1.585.747-2.821 0-1.225-.249-2.154-.747-2.786-.492-.639-1.222-.958-2.189-.958-.955 0-1.676.313-2.162.94s-.729 1.562-.729 2.804zm13.755 5.002c-1.395 0-2.476-.428-3.244-1.283-.761-.862-1.142-2.078-1.142-3.648 0-1.611.387-2.856 1.16-3.735.779-.88 1.887-1.319 3.322-1.319.463 0 .926.05 1.389.15.463.1.826.217 1.09.351l-.449 1.24a6.54 6.54 0 00-1.054-.317 4.562 4.562 0 00-1.011-.132c-1.957 0-2.935 1.248-2.935 3.744 0 1.184.237 2.092.711 2.725.481.633 1.19.95 2.127.95.803 0 1.626-.174 2.47-.52v1.293c-.644.334-1.456.5-2.434.5zm10.942-2.804c0 .897-.334 1.588-1.002 2.074-.668.487-1.606.73-2.813.73-1.277 0-2.273-.202-2.988-.607v-1.353a7.24 7.24 0 001.486.553 6.265 6.265 0 001.538.203c.761 0 1.347-.12 1.757-.36.411-.247.616-.619.616-1.117 0-.375-.164-.694-.493-.958-.322-.27-.955-.586-1.898-.95-.896-.333-1.535-.623-1.916-.87-.375-.251-.656-.535-.844-.852-.181-.316-.272-.694-.272-1.134 0-.785.319-1.403.958-1.854.638-.457 1.514-.686 2.628-.686 1.037 0 2.051.211 3.041.633l-.519 1.187c-.967-.399-1.843-.598-2.628-.598-.691 0-1.213.108-1.564.325-.352.217-.528.516-.528.897 0 .258.065.477.194.659.135.182.348.354.641.518.293.165.856.402 1.688.712 1.143.416 1.913.835 2.311 1.257.405.422.607.952.607 1.591z" fill="#414141"></path></svg>
